<svg version="1.0" xmlns="http://www.w3.org/2000/svg"
 width="720.000000pt" height="720.000000pt" viewBox="0 0 720.000000 720.000000"
 preserveAspectRatio="xMidYMid meet">
<g transform="translate(0.000000,720.000000) scale(0.100000,-0.100000)"
fill="#000000" stroke="none">
<path d="M800 5994 c-63 -19 -114 -65 -144 -129 -26 -54 -26 -55 -26 -324 0
-183 4 -286 12 -317 16 -59 67 -118 126 -147 l47 -22 2700 0 2700 0 45 22 c62
29 97 64 120 119 18 42 20 69 20 325 0 328 -5 355 -76 418 -88 77 168 71
-2811 70 -2244 -1 -2675 -3 -2713 -15z"/>
<path d="M830 4070 c-58 -11 -98 -31 -137 -72 -56 -58 -63 -100 -63 -406 0
-273 0 -273 26 -328 33 -71 93 -117 171 -133 74 -15 5359 -11 5411 4 17 6 54
29 81 52 77 66 81 89 81 422 0 256 -2 283 -20 325 -22 53 -57 88 -115 120
l-40 21 -2675 1 c-1471 1 -2695 -2 -2720 -6z"/>
<path d="M764 2120 c-61 -35 -107 -87 -123 -139 -7 -25 -11 -137 -11 -316 0
-275 0 -278 25 -326 30 -61 65 -95 130 -125 l50 -24 2675 0 c3022 0 2731 -8
2819 81 68 67 71 86 71 408 0 252 -2 284 -19 324 -25 58 -78 108 -138 130 -45
16 -212 17 -2738 17 l-2690 0 -51 -30z"/>
</g>
</svg>
